<?xml version="1.0" encoding="UTF-8"?>
<svg id="Calque_1" data-name="Calque 1" xmlns="http://www.w3.org/2000/svg" viewBox="0 0 90 90">
  <defs>
    <style>
      .cls-1 {
        fill: #fff;
        stroke-width: 0px;
      }
    </style>
  </defs>
  <path class="cls-1" d="M56.64,46.64c1.71.66,3.65.12,4.78-1.33,2.75-3.55,8.66-12.38,9.07-27.02.03-.91,0-3.96-2.09-1.81l-13.14,17.23-6.97,9.19-6.55-8.95c.7-3.55-.47-7.89-3.46-11.49-3-3.61-7.08-5.58-10.71-5.53-.39,0,3.32,2.76,5.44,6.1,2.24,3.52,2.92,7.61,2.72,7.28-.76-1.26-2.91-4.01-5.22-6.58-3.06-3.4-7.3-5.55-7.3-5.55,0,0,1.37,5.14,3.7,8.9,2.09,3.38,4.2,6.43,4.06,6.6-.19.23-3.57-1.83-6.16-5.13-2.49-3.18-4.2-7.6-4.33-7.34-1.93,3.82-.99,9.38,2.69,13.8,3.75,4.52,9.19,6.45,13.33,5.1l6.83,9.34-10.64,14.02c-.67.84-1.22,1.46-1.65,1.88-.6.58-1.22.96-1.87,1.14-.65.18-1.22.08-1.7-.31-.82,1.2-1.15,2.42-1,3.65.15,1.23.63,2.27,1.45,3.12.97,1,2.12,1.44,3.46,1.32s2.72-.87,4.14-2.24c1.39-1.35,4.08-4.56,8.07-9.65l.74-.94,3.92-5.26,2.62,3.58.71.96c3.81,5.22,6.38,8.53,7.73,9.92,1.37,1.42,2.72,2.22,4.06,2.39s2.5-.23,3.5-1.19c.85-.82,1.36-1.84,1.56-3.07.19-1.23-.1-2.45-.88-3.68-.5.37-1.07.45-1.71.25-.64-.2-1.25-.6-1.83-1.2-.41-.43-.94-1.07-1.58-1.93l-9.24-12.63,2.47-3.31,1,.39Z"/>
</svg>