<?xml version="1.0" encoding="UTF-8"?>
<svg id="Calque_1" data-name="Calque 1" xmlns="http://www.w3.org/2000/svg" viewBox="0 0 90 90">
  <defs>
    <style>
      .cls-1 {
        fill: #1d1d1b;
        stroke-width: 0px;
      }
    </style>
  </defs>
  <path class="cls-1" d="M57.65,34.77c-.24.58-.29,1.28-.15,2.1.19,1.13.69,2.11,1.49,2.95l-22.55.24,1.68,9.88,22.14-.18c-.22.71-.26,1.52-.11,2.43.18,1.03.5,2.02.97,2.96.47.94.94,1.56,1.4,1.85.77-1.9,2.38-3.6,4.84-5.09,2.46-1.49,5.48-2.6,9.08-3.32l-1.28-7.51c-2.11-.31-4.04-.72-5.81-1.21l-.54-.16c-1.48-.44-2.84-.94-4.07-1.51-2.8-1.31-4.77-2.87-5.91-4.69-.55.26-.94.68-1.18,1.26Z"/>
  <polygon class="cls-1" points="28.26 21.12 33.71 21.12 59.57 21.12 59.57 14.55 13.57 14.55 13.57 14.97 13.57 14.97 13.57 74.85 13.57 74.85 13.57 75.45 33.71 75.45 59.57 75.45 59.57 68.85 28.26 68.85 28.26 48.63 28.26 21.12"/>
</svg>