<?xml version="1.0" encoding="UTF-8"?>
<svg id="Calque_1" data-name="Calque 1" xmlns="http://www.w3.org/2000/svg" viewBox="0 0 90 90">
  <defs>
    <style>
      .cls-1 {
        fill: #fff;
      }

      .cls-1, .cls-2 {
        stroke-width: 0px;
      }

      .cls-2 {
        fill: #1d1d1b;
      }
    </style>
  </defs>
  <path class="cls-2" d="M37.35,13.22s2.31-3.2,11.73-2.4c9.87.84,23.12,13.06,20.42,35.84-2.7,22.79-10.86,34.26-23.68,35.28-8.4.67-13.54-6.38-15.02-11.53-.78-2.71-1.39-6.57-.94-11.86.4-4.74,4.38-8.83,2.54-12.21-2.7-4.97-2.18-3.18-4.06-9.9-4.55-16.23,9-23.22,9-23.22Z"/>
  <path class="cls-1" d="M61.67,35.57c-.88,1.61-1.99,3.04-3.33,4.29-1.34,1.25-3.15,2.79-5.44,4.63-2.49,1.93-4.32,3.52-5.48,4.77-1.16,1.25-1.66,2.5-1.51,3.75-1.04.12-1.95-.22-2.74-1.04-.79-.81-1.26-1.9-1.42-3.26s.01-2.54.52-3.66c.5-1.11,1.17-2.1,1.99-2.96.82-.86,1.91-1.84,3.27-2.95,1.32-1.14,2.33-2.07,3.04-2.79.71-.72,1.29-1.56,1.74-2.52.45-.96.61-2,.47-3.11-.2-1.68-1.13-2.43-2.77-2.23-1.4.17-2.46.78-3.18,1.85-.73,1.07-1,2.35-.82,3.86.11.93.37,1.72.77,2.36-.8.31-1.88.55-3.24.71-1.76.21-3.23.07-4.44-.42-1.2-.49-1.89-1.49-2.07-2.99-.29-2.44.92-4.38,3.64-5.83,2.71-1.45,5.86-2.39,9.44-2.82s6.54-.25,8.78.56c2.24.81,3.5,2.39,3.78,4.75.21,1.76-.13,3.44-1,5.05ZM49.88,56.18c1.05.6,1.66,1.55,1.81,2.83s-.25,2.35-1.2,3.19c-.95.84-2.24,1.36-3.85,1.55s-3.01,0-4.1-.57c-1.09-.58-1.7-1.49-1.85-2.75-.16-1.32.26-2.42,1.24-3.28s2.3-1.39,3.95-1.59,2.94.01,4,.61Z"/>
</svg>