<?xml version="1.0" encoding="UTF-8"?>
<svg id="Calque_1" data-name="Calque 1" xmlns="http://www.w3.org/2000/svg" viewBox="0 0 90 90">
  <defs>
    <style>
      .cls-1 {
        fill: #fff;
        stroke-width: 0px;
      }
    </style>
  </defs>
  <path class="cls-1" d="M13.6,43.07c.48-16.61,15.53-29.32,31.58-29.32,21.35-.31,36.7,21.28,29.44,41.52-6.3,18.13-28.29,26.57-45.04,17-10.27-5.73-16.55-17.55-15.97-29.19h0ZM20.42,43.07c.5,13,12.25,23.05,24.76,23.16,12.76.46,24.44-10.12,25.15-23.16,1.38-19.94-20.43-33.77-37.77-23.61-8.07,4.82-12.69,14.38-12.14,23.61h0Z"/>
  <circle class="cls-1" cx="45.18" cy="30.16" r="10.17"/>
  <path class="cls-1" d="M63.97,51.74c0,4.79-8.41,11.05-18.79,11.05s-18.79-6.27-18.79-11.05,8.41-8.67,18.79-8.67,18.79,3.88,18.79,8.67Z"/>
</svg>