<?xml version="1.0" encoding="UTF-8"?>
<svg id="Calque_1" data-name="Calque 1" xmlns="http://www.w3.org/2000/svg" viewBox="0 0 90 90">
  <defs>
    <style>
      .cls-1 {
        fill: #1d1d1b;
        stroke-width: 0px;
      }
    </style>
  </defs>
  <path class="cls-1" d="M47.69,65.91c-.41-.75-.61-1.65-.61-2.7,0-.75.08-1.8.25-3.15l1.34-10.29,24.05,3.14-1.5-10.24-21.27-2.72,2.96-22.67-10.24,1.5-2.55,19.9c-7.7-1.05-12.75-1.58-15.13-1.58-2.5,0-4.41.53-5.73,1.6-1.32,1.06-1.99,2.48-1.99,4.23,0,1.49.48,2.86,1.43,4.11.95,1.25,2.32,2.06,4.12,2.43.1-.78.53-1.37,1.27-1.77.75-.41,1.65-.61,2.7-.61.75,0,1.8.08,3.15.25l8.92,1.16-.09.7c-1.12,8.09-1.67,13.36-1.67,15.81s.53,4.41,1.6,5.73c1.06,1.32,2.48,1.99,4.23,1.99,1.49,0,2.86-.48,4.11-1.43,1.25-.95,2.06-2.32,2.43-4.12-.78-.1-1.37-.53-1.77-1.27Z"/>
</svg>