<?xml version="1.0" encoding="UTF-8"?>
<svg id="Calque_1" data-name="Calque 1" xmlns="http://www.w3.org/2000/svg" viewBox="0 0 90 90">
  <defs>
    <style>
      .cls-1 {
        fill: #1d1d1b;
        stroke-width: 0px;
      }
    </style>
  </defs>
  <path class="cls-1" d="M45.18,13.75c-16.05,0-31.1,12.71-31.58,29.32-.58,11.64,5.7,23.46,15.97,29.19,16.75,9.57,38.74,1.14,45.04-17,7.26-20.23-8.09-41.83-29.44-41.52ZM70.33,43.07c-.71,13.04-12.4,23.62-25.15,23.16-12.51-.11-24.26-10.16-24.76-23.16-.55-9.23,4.07-18.79,12.14-23.61,17.35-10.16,39.15,3.67,37.77,23.61Z"/>
  <path class="cls-1" d="M45.18,40.33c5.62,0,10.17-4.55,10.17-10.17s-4.55-10.17-10.17-10.17-10.17,4.55-10.17,10.17,4.55,10.17,10.17,10.17Z"/>
  <path class="cls-1" d="M45.18,43.07c-10.38,0-18.79,3.88-18.79,8.67s8.41,11.05,18.79,11.05,18.79-6.27,18.79-11.05-8.41-8.67-18.79-8.67Z"/>
</svg>