<?xml version="1.0" encoding="UTF-8"?>
<svg id="Calque_1" data-name="Calque 1" xmlns="http://www.w3.org/2000/svg" viewBox="0 0 109.25 68.3">
  <defs>
    <style>
      .cls-1 {
        fill: #1d1d1b;
        stroke-width: 0px;
      }
    </style>
  </defs>
  <path class="cls-1" d="M57.57,10.21c-.59,1.32-.71,2.92-.37,4.79.47,2.58,1.69,4.83,3.62,6.74l-54.72.55,4.08,22.55,53.71-.4c-.54,1.63-.63,3.48-.26,5.55.43,2.35,1.21,4.61,2.35,6.76,1.14,2.16,2.27,3.56,3.39,4.22,1.86-4.34,5.77-8.22,11.74-11.62,5.96-3.4,13.3-5.93,22.02-7.58l-3.1-17.14c-5.12-.71-9.81-1.63-14.09-2.76l-1.32-.37c-3.6-1-6.9-2.15-9.87-3.46-6.8-2.99-11.58-6.56-14.33-10.71-1.32.6-2.28,1.56-2.86,2.88Z"/>
</svg>