<?xml version="1.0" encoding="UTF-8"?>
<svg id="Calque_1" data-name="Calque 1" xmlns="http://www.w3.org/2000/svg" viewBox="0 0 109.25 131.66">
  <defs>
    <style>
      .cls-1 {
        fill: #1d1d1b;
        stroke-width: 0px;
      }
    </style>
  </defs>
  <path class="cls-1" d="M78.57,68.78c-1.32-.59-2.92-.71-4.79-.37-2.58.47-4.83,1.69-6.74,3.62l-.55-54.72-22.55,4.08.4,53.71c-1.63-.54-3.48-.63-5.55-.26-2.35.43-4.61,1.21-6.76,2.35-2.16,1.14-3.56,2.27-4.22,3.39,4.34,1.86,8.22,5.77,11.62,11.74,3.4,5.96,5.93,13.3,7.58,22.02l17.14-3.1c.71-5.12,1.63-9.81,2.76-14.09l.37-1.32c1-3.6,2.15-6.9,3.46-9.87,2.99-6.8,6.56-11.58,10.71-14.33-.6-1.32-1.56-2.28-2.88-2.86Z"/>
</svg>